<?xml version="1.0" encoding="utf-8"?>
<!-- Generator: Adobe Illustrator 21.0.2, SVG Export Plug-In . SVG Version: 6.00 Build 0)  -->
<svg version="1.1" id="Layer_1" xmlns="http://www.w3.org/2000/svg" xmlns:xlink="http://www.w3.org/1999/xlink" x="0px" y="0px"
	 viewBox="0 0 956 509" style="enable-background:new 0 0 956 509;" xml:space="preserve">
<style type="text/css">
	.st0{fill:#D52B1E;}
</style>
<g>
	<path class="st0" d="M700.7,230.5c3-3.4,6.1-6.6,9.4-9.6c22.6-22.7,43.3-37.1,48.5-33.2c6.6,5.3-14.6,33.9-38.8,59.3
		c-3.1,3.2-6.4,6.6-9.7,9.6c-23.8,22.5-49.9,40.1-49.9,40.1S668,265.8,700.7,230.5 M85.2,343.3c-1.2,0.2-2.4,0.2-3.5,0.2
		c-24.5,0-43.1-4.1-43.8-16.1c-0.7-11.9,15.1-17.2,39.8-17.9c2.4,0,5,0,7.5,0.5c22.6,2.5,47.1,18.3,47.1,18.3
		S108.2,342.1,85.2,343.3 M393.8,98.5c1.7-1.8,3.8-3.7,5.9-5.7c23.3-22,69.2-61.4,79.1-51.8c10.6,10.5-19.8,51.3-41.9,73.5
		c-12.9,12.8-24.5,22.9-37.2,32.8c-8.2,5.9-16.7,11.9-26.9,18.3c-26.6,17-54.4,24.1-54.4,24.1S373.5,118.2,393.8,98.5 M554.3,206.7
		c4-4.3,8.3-8.5,12.3-12.6c28.9-28.7,56-48.1,62.6-43.1c8.5,6.6-21.7,42.2-52.7,74.2c-3,3.5-6.6,6.7-9.9,10.1
		c-30.6,29.3-64.3,53.6-64.3,53.6S512.4,251.4,554.3,206.7 M927.9,270.1c0,0-26.4,26.6-56,48.8c-25.7,19.5-54.1,25-57.9,22
		c-5.2-4.1,5.2-22.2,5.7-22.9c7.1-7.3,15.7-20.2,15.7-20.2s-27.8-20.4-28.5-21.1c-0.7-0.7-38.8,36.5-82.9,56.4
		c-5.2,2-9.6,3.9-13.9,5.5c-41.7,14-47.8-8.7-47.8-8.7s22.6-12.6,47.8-31.4c11.5-8.7,23.5-18.8,34.1-29.8
		c33.6-34.6,60-70.3,55.1-96.2c-5.2-25.9-43.5-23.4-77.2-3.7c-4,2.5-8,5.3-12,8.1c-29.4,21.7-56.7,56.6-66.6,75.6
		c-11.5,21.5-21,50.8-22.4,66.2c0,1.1-25.7,14.4-54.6,21.1c-5.9,1.1-11.8,2.3-17.7,3c-35.6,3.6-45-11-46.8-14.7
		c0,0,30.1-17.9,64.5-46.5c15.3-12.6,31.5-27.7,46.4-44.2c48.3-53.6,61-80.7,58.4-99.5c-3.5-22.4-37.4-35.3-98.4,8.2
		c-2.1,1.4-4.3,3-6.4,4.8c-25.4,19.5-50.2,46.3-67.8,72.9c-18.8,29.1-35.3,64.1-36,88.6c0,0-23.3,18.1-58.1,27.5
		c-1.6,0.4-3.3,0.9-4.9,1.1c-25.4,5.7-27.1-3-25-12.6c1.4-7.1,16.5-25.9,25-35.7c3.1-3.9,5.4-6.4,5.4-6.4l-5.4-3.7l-23.1-16.5
		c0,0-70.4,74-116.5,76.1c-44,1.8-60.3-13.5-60.3-13.5s43.3-30.9,86.9-95.8c0,0,53.7-9.6,113-45.1c40.7-24.5,84.3-61.2,114.9-115.5
		c21.4-37.6,12.2-103.4-80.3-53.4c-11.1,5.9-22.8,14.4-34.6,24.3c-67.8,56.1-139.6,161.1-139.6,161.1c-53.9,13.5-158.2-9.2-126.6-72
		C164.5,70.6,263.1,61,263.1,61s-8.9-25.9-13.9-29.6C243.6,27.1,85.9,58,88.5,160.8c7.8,87.3,141.3,79.1,143.8,78.4
		c2.3-0.7-49,60.9-65.5,68.9c0,0-28.9-18.5-64-26.3c-5.2-1.4-11.3-2.1-17.7-2.5c-35.3-2.1-80.3,9.4-84,43.1v0.4v11.3
		c4.7,40.3,62.2,41.2,77.9,41.5h6.1c40.5-1.4,76.7-21.8,80.5-24.1c0,0,28.5,25.9,80.5,23.4c51.8-2.5,89.2-30.7,89.2-30.7
		s1.9,27,30.3,31.4c8.5,1.1,20.5,0.2,33.9-2.3c23.8-4.6,51.8-14.7,70.6-27.3c0,0,5.9,20.4,34.4,27c21.4,5,44.1,2.3,61.9-1.8
		c5.9-1.4,11.3-3,16-4.4C601.6,361.4,627,349,627,349s6.1,17.9,29.7,24c0,0,16.2,8.5,53.4-2.1c1.4-0.4,3.1-1.1,4.9-1.6
		c40.5-13.1,54.4-24.1,54.4-24.1s0.9,15.6,5.9,20.2c6.4,6.2,12.5,11.2,32.5,9.4c7.1-0.7,16.2-2.7,16.2-2.7
		c-25.6,27-20.7,21.1-41.9,48.3c-19.8,25.4-43.8,61.9-46.8,78.2c-0.2,0.9,37.9,9.4,37.9,9.4s27.3-61.6,80-115.9
		c52.5-54.1,102.6-99.9,102.6-99.9L927.9,270.1z"/>
	<path class="st0" d="M402.7,237.2c0,12.4,10.4,22.5,23.3,22.5c12.7,0,23.1-10.1,23.1-22.5c0-12.6-10.4-22.7-23.1-22.7
		C413.1,214.5,402.7,224.6,402.7,237.2"/>
</g>
</svg>
