<?xml version="1.0" encoding="utf-8"?>
<!-- Generator: Adobe Illustrator 21.0.2, SVG Export Plug-In . SVG Version: 6.00 Build 0)  -->
<svg version="1.1" id="Layer_1" xmlns="http://www.w3.org/2000/svg" xmlns:xlink="http://www.w3.org/1999/xlink" x="0px" y="0px"
	 viewBox="0 0 777 346" style="enable-background:new 0 0 777 346;" xml:space="preserve">
<style type="text/css">
	.st0{fill:#818B95;}
	.st1{fill:#00BBD3;}
	.st2{fill:#F36C00;}
</style>
<g>
	<path class="st0" d="M148.6,345.6c-5.9-9.8-11.6-23.9-11.6-41.9c0-18,5.7-32.1,11.6-41.9h2.8c-6.2,10.2-11.2,25.5-11.2,41.9
		c0,16.4,5,31.7,11.2,41.9H148.6z"/>
	<path class="st0" d="M156.1,261.9h3.5v26.4h0.2c1.8-5.2,4.9-9.7,12.5-9.7c12.2,0,15,11.1,15,25.4c0,15.1-3.8,25.7-15.2,25.7
		c-6.8,0-11.1-3.9-12.3-10.5h-0.2v9.4h-3.5V261.9z M159.6,303.9c0,14.3,3.3,22.5,11.9,22.5c9.6,0,11.8-10.1,11.8-22.5
		c0-15.2-3-22.2-11.2-22.2C163.2,281.7,159.6,288.9,159.6,303.9"/>
	<path class="st0" d="M221.4,322.6c0,2.3,0.9,3.3,2.1,3.3c0.8,0,1.6-0.1,2.2-0.5v2.8c-0.7,0.6-2.1,0.8-3.7,0.8
		c-1.5,0-4.2-1.5-4.2-5.3v-3.1h-0.2c-1.4,5-6.2,9-12.8,9c-8.5,0-12.2-6.1-12.2-13.6c0-7.4,3-11.6,9.9-13.4l10.5-2.9
		c4.2-1.1,4.8-3.1,4.8-7.2c0-8.9-4.1-10.7-9.4-10.7c-8.2,0-10.6,5.1-10.6,11.8h-3.5c0-6.6,2.4-15,13.8-15c10.7,0,13.3,5.9,13.3,12.9
		V322.6z M217.8,300h-0.2c-1.2,2-2.5,2.2-6.2,3.3l-7.2,2c-5.7,1.6-7.7,4.9-7.7,10.7c0,6.3,2.8,10.4,9,10.4c8.3,0,12.3-6.5,12.3-16.3
		V300z"/>
	<path class="st0" d="M231,279.7h3.5v8.5h0.2c1.8-5.6,5.8-9.6,12.2-9.6h2.1v3.2h-2.1c-8.3,0-12.4,7.7-12.4,15.8v31H231V279.7z"/>
	<path class="st0" d="M253.4,261.9h3.5v9.5h-3.5V261.9z M253.4,279.7h3.5v48.8h-3.5V279.7z"/>
	<path class="st0" d="M296,312.5c0,4.6-2.5,17.1-15.1,17.1c-12.6,0-15.8-11.1-15.8-25.7c0-16.1,4.9-25.3,16.4-25.3
		c11.8,0,14.2,11.6,14.2,15.1h-3.9c0-3-2-11.9-10.4-11.9c-9,0-12.4,8.3-12.4,22.3c0,15.2,3.4,22.4,12.4,22.4
		c9,0,10.6-10.3,10.6-13.9H296z"/>
	<path class="st0" d="M302.5,261.9h3.5v9.5h-3.5V261.9z M302.5,279.7h3.5v48.8h-3.5V279.7z"/>
	<path class="st0" d="M311.5,279.7h6.6v-14.5h3.5v14.5h8.1v3.2h-8.1v37.6c0,4.7,2.2,5.4,4.3,5.4c1.5,0,2.8-0.1,4.4-0.6v3.2
		c-1.8,0.4-3.6,0.6-5,0.6c-5,0-7.2-2.9-7.2-8.2v-38h-6.6V279.7z"/>
	<path class="st0" d="M334.4,261.9h3.5v9.5h-3.5V261.9z M334.4,279.7h3.5v48.8h-3.5V279.7z"/>
	<path class="st0" d="M347.4,279.7h3.5v7.4h0.2c1.7-4.3,5.8-8.5,12.4-8.5c6.9,0,12.3,3.9,12.3,13.2v36.8h-3.5v-35.1
		c0-8.7-3.6-11.7-9.7-11.7c-7.5,0-11.7,7-11.7,15.5v31.2h-3.5V279.7z"/>
	<path class="st0" d="M385.2,261.9h3.5v9.5h-3.5V261.9z M385.2,279.7h3.5v48.8h-3.5V279.7z"/>
	<path class="st0" d="M398.4,261.9h3.5v26.4h0.2c1.8-5.2,4.9-9.7,12.5-9.7c12.2,0,15,11.1,15,25.4c0,15.1-3.8,25.7-15.2,25.7
		c-6.8,0-11.1-3.9-12.3-10.5h-0.2v9.4h-3.5V261.9z M401.9,303.9c0,14.3,3.3,22.5,11.9,22.5c9.6,0,11.8-10.1,11.8-22.5
		c0-15.2-3-22.2-11.2-22.2C405.6,281.7,401.9,288.9,401.9,303.9"/>
	<path class="st0" d="M435.7,261.9c5.9,9.8,11.6,23.9,11.6,41.9c0,18-5.7,32.1-11.6,41.9h-2.8c6.2-10.2,11.2-25.5,11.2-41.9
		c0-16.4-5-31.7-11.2-41.9H435.7z"/>
	<path class="st0" d="M468,279.7h6.6v-14.5h3.5v14.5h8.1v3.2h-8.1v37.6c0,4.7,2.2,5.4,4.3,5.4c1.5,0,2.8-0.1,4.4-0.6v3.2
		c-1.8,0.4-3.6,0.6-5,0.6c-5,0-7.2-2.9-7.2-8.2v-38H468V279.7z"/>
	<path class="st0" d="M516.8,322.6c0,2.3,0.9,3.3,2.1,3.3c0.8,0,1.6-0.1,2.2-0.5v2.8c-0.7,0.6-2.1,0.8-3.7,0.8
		c-1.5,0-4.2-1.5-4.2-5.3v-3.1H513c-1.4,5-6.2,9-12.8,9c-8.5,0-12.2-6.1-12.2-13.6c0-7.4,3-11.6,9.9-13.4l10.5-2.9
		c4.2-1.1,4.8-3.1,4.8-7.2c0-8.9-4.1-10.7-9.4-10.7c-8.2,0-10.6,5.1-10.6,11.8h-3.5c0-6.6,2.4-15,13.8-15c10.7,0,13.3,5.9,13.3,12.9
		V322.6z M513.2,300H513c-1.2,2-2.5,2.2-6.2,3.3l-7.2,2c-5.7,1.6-7.7,4.9-7.7,10.7c0,6.3,2.8,10.4,9,10.4c8.3,0,12.3-6.5,12.3-16.3
		V300z"/>
	<path class="st0" d="M526.6,261.9h3.5v26.4h0.2c1.8-5.2,4.9-9.7,12.5-9.7c12.2,0,15,11.1,15,25.4c0,15.1-3.8,25.7-15.2,25.7
		c-6.8,0-11.1-3.9-12.3-10.5h-0.2v9.4h-3.5V261.9z M530.1,303.9c0,14.3,3.3,22.5,11.9,22.5c9.6,0,11.8-10.1,11.8-22.5
		c0-15.2-3-22.2-11.2-22.2C533.7,281.7,530.1,288.9,530.1,303.9"/>
	<rect x="566" y="261.9" class="st0" width="3.5" height="66.6"/>
	<path class="st0" d="M581.7,303.8c0,7.8,0.1,22.6,11.5,22.6c10.3,0,11.9-10.3,11.9-13.9h3.5c0,7.5-4.1,17.1-15.1,17.1
		c-12.6,0-15.8-10.3-15.8-26.9c0-14.9,5.3-24.2,16.3-24.2c11.5,0,15.2,9.5,15.2,25.3H581.7z M605.4,300.7c0-8.9-1.4-18.9-11.5-18.9
		c-10.8,0-12.2,12.6-12.2,18.9H605.4z"/>
	<path class="st0" d="M612.5,279.7h6.6v-14.5h3.5v14.5h8.1v3.2h-8.1v37.6c0,4.7,2.2,5.4,4.3,5.4c1.5,0,2.8-0.1,4.4-0.6v3.2
		c-1.8,0.4-3.6,0.6-5,0.6c-5,0-7.2-2.9-7.2-8.2v-38h-6.6V279.7z"/>
	<path class="st0" d="M655.9,293.4V292c0-4.4-1.1-10.3-9.1-10.3c-5.1,0-9.4,2.6-9.4,9c0,5.1,2.4,7.7,7.3,9.6l7.5,2.8
		c5.9,2.2,8.9,6.3,8.9,13c0,8.2-6.3,13.4-14.1,13.4c-13.5,0-14.5-9.7-14.5-15.4v-1.3h3.5v1.6c0,6.9,2.8,11.9,10.9,11.9
		c7.2,0,10.2-4.8,10.2-10.2c0-4.7-1.9-7.8-7.3-10l-7.2-2.9c-6.1-2.4-9.1-6-9.1-12.2c0-8.1,5.6-12.6,13.3-12.6
		c10.8,0,12.7,7.4,12.7,13.3v1.5H655.9z"/>
	<path class="st1" d="M693.2,95.9c4-0.9,8.1-1.9,12.3-3.1c38.2-10.7,71.1-29.2,71.5-29.4l-1.1-2.4c-8.4,3.1-17.3,6-26.4,8.6h0
		c-14.9,4.2-42.4,10.7-73.3,12.2C681.8,85.8,687.5,90.6,693.2,95.9"/>
	<path class="st1" d="M631,78.4c-5.5-0.8-21-7.8-35.7-4.9l-3.9,0l2.4,3.5c14.1,20.8,38.9,29.8,72.5,26.8
		C654.5,96,643.5,83.8,631,78.4"/>
	<path class="st0" d="M666.6,74.7c47.9-18.9,92.8-72.3,93.3-72.9l-1.7-1.7C742.3,14,699.6,47.9,647.6,62.5c-2.1,0.6-4.1,1-6.2,1.5
		C649.7,65.9,658.1,69.5,666.6,74.7"/>
	<path class="st2" d="M705.1,120.4C666.4,75.2,625.9,59.1,592.4,73l-1.1,0.4l3.6,0.9c61,12.8,118.9,67.4,153,113.7l2.2-1.4
		C749.9,186.4,732,151.8,705.1,120.4"/>
	<path class="st2" d="M664.5,223.5c0.5-1.1,1.2-2,2-2.8c0.8-0.8,1.8-1.4,2.9-1.8c1.1-0.4,2.3-0.6,3.5-0.6c1.2,0,2.4,0.2,3.5,0.6
		c1.1,0.4,2.1,1,2.9,1.8c0.8,0.8,1.5,1.7,2,2.8c0.5,1.1,0.8,2.3,0.8,3.7c0,1.4-0.3,2.6-0.8,3.7c-0.5,1.1-1.2,2-2,2.8
		c-0.8,0.8-1.8,1.4-2.9,1.8c-1.1,0.4-2.3,0.6-3.5,0.6c-1.2,0-2.4-0.2-3.5-0.6c-1.1-0.4-2.1-1-2.9-1.8c-0.8-0.8-1.5-1.7-2-2.8
		c-0.5-1.1-0.8-2.3-0.8-3.7C663.7,225.9,664,224.6,664.5,223.5 M666.7,230c0.4,0.9,0.8,1.6,1.4,2.2c0.6,0.6,1.3,1.1,2.1,1.5
		c0.8,0.4,1.7,0.5,2.6,0.5c0.9,0,1.8-0.2,2.6-0.5c0.8-0.3,1.5-0.8,2.1-1.5c0.6-0.6,1.1-1.4,1.4-2.2c0.4-0.9,0.5-1.8,0.5-2.8
		c0-1-0.2-2-0.5-2.8c-0.4-0.9-0.8-1.6-1.4-2.2c-0.6-0.6-1.3-1.1-2.1-1.5c-0.8-0.4-1.7-0.5-2.6-0.5c-0.9,0-1.8,0.2-2.6,0.5
		c-0.8,0.4-1.5,0.8-2.1,1.5c-0.6,0.6-1.1,1.4-1.4,2.2c-0.4,0.9-0.5,1.8-0.5,2.8C666.2,228.2,666.4,229.2,666.7,230 M673.1,222.2
		c1.3,0,2.2,0.2,2.9,0.7c0.7,0.4,1,1.2,1,2.3c0,0.5-0.1,0.9-0.2,1.2c-0.1,0.3-0.3,0.6-0.6,0.8c-0.2,0.2-0.5,0.4-0.8,0.5
		c-0.3,0.1-0.7,0.2-1,0.2l2.7,4.4H675l-2.4-4.3h-1.2v4.3h-2v-10H673.1z M673.1,226.4c0.6,0,1-0.1,1.4-0.2c0.4-0.2,0.6-0.5,0.6-1.1
		c0-0.3-0.1-0.5-0.2-0.6c-0.1-0.2-0.3-0.3-0.5-0.4c-0.2-0.1-0.4-0.1-0.7-0.2c-0.2,0-0.5-0.1-0.7-0.1h-1.7v2.6H673.1z"/>
	<path class="st2" d="M95.9,188.4c0,27.4-21.4,49.5-47.7,49.5c-26.1,0-47.5-22.2-47.5-49.5c0-27.7,21.4-50.3,47.5-50.3
		C74.5,138.1,95.9,160.6,95.9,188.4 M88.9,188.4c0-24.2-18.1-43.8-40.7-43.8c-22.4,0-40.7,19.6-40.7,43.8
		c0,23.7,18.3,43.1,40.7,43.1C70.8,231.4,88.9,212,88.9,188.4"/>
	<rect x="110.9" y="98.1" class="st2" width="6.8" height="137.5"/>
	<path class="st2" d="M218.4,235.7h-6.8V220c-6.5,11.1-18.3,17.9-33.3,17.9c-23.1,0-39.9-16.8-39.9-39.9v-57.5h6.8V198
		c0,19.2,14,33.1,33.1,33.1c19.4,0,33.3-13.9,33.3-33.1v-57.5h6.8V235.7z"/>
	<path class="st2" d="M377.1,235.7h-6.8v-61.4c0-17-12.4-29.2-29.4-29.2c-16.8,0-29.2,12.2-29.2,29.2v61.4h-6.8v-61.4
		c0-17-12.4-29.2-29.4-29.2c-16.8,0-29.2,12.2-29.2,29.2v61.4h-6.8v-95.2h6.8v12.9c5.9-9.4,16.3-15.3,29.2-15.3
		c15.5,0,27.9,8.3,33.3,21.1c5-12.8,16.8-21.1,32.2-21.1c21.1,0,36.2,15.3,36.2,36.2V235.7z"/>
	<path class="st2" d="M405.1,124.4h-6.8v-17h6.8V124.4z M405.1,235.7h-6.8v-95.2h6.8V235.7z"/>
	<path class="st2" d="M497.9,235.7c-1.7-3.5-2.6-7.9-2.6-13.9V220c-7.6,10.7-22.2,17.4-41,17.4c-16.6,0-34.6-8.3-34.6-26.6
		c0-21.6,20.1-26.6,40.5-28.5c21.1-2,35.1-4.3,35.1-15.9c0-17.6-16.6-21.6-30.7-21.6c-17.4,0-28.8,7.2-32.9,20.1h-7
		c4.2-17,18.5-26.8,39.9-26.8c23.8,0,37.5,10.4,37.5,28.3v53.8c0,4.8,1.3,11.8,2.8,15.5H497.9z M495.4,179.3
		c-7.4,6.8-21.3,8.1-34.4,9.2c-24.4,2.4-33.8,8.9-33.8,22c0,15.7,17.7,20,27.2,20c20.5,0,41-9.2,41-29.4V179.3z"/>
	<path class="st2" d="M603,235.7h-6.8v-57.5c0-20.9-11.3-33.5-32.2-33.5c-19.2,0-34.2,14.2-34.2,33.5v57.5H523v-95.2h6.8v16.1
		c6.8-11.3,19.2-18.5,34.4-18.5c24.4,0,38.8,15.3,38.8,40.1V235.7z"/>
	<path class="st2" d="M630.3,202.8c0,16.3,7.6,27.4,25.7,26.6v6.3c-20.5,1.8-32.5-11.6-32.5-32.9v-55.5h-12.9v-6.8h12.9v-20.3h6.8
		v20.3H656v6.8h-25.7V202.8z"/>
</g>
</svg>
