<?xml version="1.0" encoding="utf-8"?>
<!-- Generator: Adobe Illustrator 21.0.0, SVG Export Plug-In . SVG Version: 6.00 Build 0)  -->
<svg version="1.1" id="WEBSITE_MENU_NAVIGATION_ICONS_by_RedKoala"
	 xmlns="http://www.w3.org/2000/svg" xmlns:xlink="http://www.w3.org/1999/xlink" x="0px" y="0px" viewBox="0 0 296 301"
	 style="enable-background:new 0 0 296 301;" xml:space="preserve">
<style type="text/css">
	.st0{fill:#FFFFFF;}
</style>
<title>icon_intro</title>
<g id="SPEAKER">
	<path id="handle" class="st0" d="M105.1,182.7c-4.7-0.9-9.4-1.8-14.1-2.6h-6.9l25.2,100.8H81.9L56.7,180.1H36.3l28.3,113.1
		c1.1,4.4,5.1,7.5,9.6,7.5H122c5.5,0,9.9-4.4,9.9-9.9c0-1-0.2-2-0.5-3L105.1,182.7z"/>
	<path id="speaker-2" class="st0" d="M289.9,1.2c-3.5-1.6-7.6-1.1-10.5,1.3C278.6,3.1,203.1,64.2,91,81.2H26.1
		c-2.3,0-4.5,0.8-6.2,2.2c-0.8,0.7-19.4,16.2-19.4,47.2s18.6,46.6,19.4,47.2c1.8,1.4,4,2.2,6.2,2.2H91
		c109.5,17.8,187.5,78,188.5,78.8c4.3,3.4,10.5,2.6,13.9-1.7c1.4-1.7,2.1-3.9,2.1-6.1V10C295.5,6.3,293.3,2.9,289.9,1.2z
		 M20.3,130.7c0-15.8,6.4-25.5,10-29.6h51.6v59.3H30.2C26.7,156.2,20.3,146.5,20.3,130.7z M275.8,232c-28.2-18.7-91.4-55.2-174-70.2
		V99.5c57.8-9.9,105.2-30.7,135.4-46.7c13.3-7,26.2-14.8,38.6-23.2V232z"/>
</g>
</svg>
