<?xml version="1.0" encoding="utf-8"?>
<!-- Generator: Adobe Illustrator 21.0.0, SVG Export Plug-In . SVG Version: 6.00 Build 0)  -->
<svg version="1.1" id="icons" xmlns="http://www.w3.org/2000/svg" xmlns:xlink="http://www.w3.org/1999/xlink" x="0px" y="0px"
	 viewBox="0 0 51 71" style="enable-background:new 0 0 51 71;" xml:space="preserve">
<style type="text/css">
	.st0{fill:none;stroke:#FFFFFF;stroke-width:4;stroke-linecap:round;stroke-linejoin:round;}
</style>
<title>icon_summary</title>
<path class="st0" d="M36.4,10.5V6.9c0-0.7-0.5-1.2-1.2-1.2h-1.4c-0.6-2.1-2.5-3.6-4.7-3.6h-7.3c-2.2,0-4.1,1.5-4.7,3.6h-1.4
	c-0.7,0-1.2,0.5-1.2,1.2v3.5"/>
<path class="st0" d="M5.7,10.5h39.6c2,0,3.6,1.6,3.6,3.6v51.3c0,2-1.6,3.6-3.6,3.6H5.7c-2,0-3.6-1.6-3.6-3.6V14.1
	C2.1,12.1,3.7,10.5,5.7,10.5z"/>
<line class="st0" x1="13.1" y1="21.8" x2="37.7" y2="21.8"/>
<line class="st0" x1="13.1" y1="28" x2="37.7" y2="28"/>
<line class="st0" x1="13.1" y1="34.2" x2="37.7" y2="34.2"/>
<line class="st0" x1="13.1" y1="40.3" x2="37.7" y2="40.3"/>
<line class="st0" x1="13.1" y1="46.5" x2="37.7" y2="46.5"/>
<line class="st0" x1="13.1" y1="52.7" x2="37.7" y2="52.7"/>
<line class="st0" x1="13.1" y1="58.8" x2="22.9" y2="58.8"/>
</svg>
