<?xml version="1.0" encoding="utf-8"?>
<!-- Generator: Adobe Illustrator 21.0.0, SVG Export Plug-In . SVG Version: 6.00 Build 0)  -->
<svg version="1.1" id="icons" xmlns="http://www.w3.org/2000/svg" xmlns:xlink="http://www.w3.org/1999/xlink" x="0px" y="0px"
	 viewBox="0 0 73 62" style="enable-background:new 0 0 73 62;" xml:space="preserve">
<style type="text/css">
	.st0{fill:none;stroke:#F36C00;stroke-width:4;stroke-linecap:round;stroke-linejoin:round;}
</style>
<title>icon_safety</title>
<path class="st0" d="M68.9,11.4H49.1V4.2c0-1-0.8-1.8-1.8-1.8l0,0H25.7c-1,0-1.8,0.8-1.8,1.8v7.2H4c-1,0-1.8,0.8-1.8,1.8v44.7
	c0,1,0.8,1.8,1.8,1.8l0,0h64.9c1,0,1.8-0.8,1.8-1.8l0,0V13.2C70.7,12.2,69.9,11.4,68.9,11.4L68.9,11.4z"/>
<path class="st0" d="M47.3,31.3h-5.8v-5.8c0-0.8-0.6-1.4-1.4-1.4h-7.2c-0.8,0-1.5,0.6-1.5,1.4v5.8h-5.8c-0.8,0-1.5,0.6-1.5,1.4V40
	c0,0.8,0.6,1.5,1.4,1.5l0,0h5.8v5.8c0,0.8,0.6,1.4,1.5,1.4H40c0.8,0,1.4-0.6,1.4-1.4v-5.8h5.8c0.8,0,1.4-0.6,1.4-1.4v-7.2
	C48.8,32,48.2,31.3,47.3,31.3C47.4,31.3,47.3,31.3,47.3,31.3z"/>
<line class="st0" x1="15.5" y1="11.4" x2="57.5" y2="11.4"/>
</svg>
