<?xml version="1.0" encoding="utf-8"?>
<!-- Generator: Adobe Illustrator 21.0.0, SVG Export Plug-In . SVG Version: 6.00 Build 0)  -->
<svg version="1.1" id="Isolation_Mode" xmlns="http://www.w3.org/2000/svg" xmlns:xlink="http://www.w3.org/1999/xlink" x="0px"
	 y="0px" viewBox="0 0 117 36" style="enable-background:new 0 0 117 36;" xml:space="preserve">
<style type="text/css">
	.st0{fill:none;stroke:#F36C00;stroke-width:4;stroke-linecap:round;stroke-linejoin:round;}
</style>
<title>icon_treatment_paradigm</title>
<g>
	<line class="st0" x1="34.2" y1="18" x2="42.5" y2="18"/>
	<line class="st0" x1="74.6" y1="18" x2="82" y2="18"/>
	<path class="st0" d="M12.3,2h11.9c5.5,0,10,4.5,10,10v12c0,5.5-4.5,10-10,10H12.3c-5.5,0-10-4.5-10-10V12C2.3,6.5,6.8,2,12.3,2z"/>
	<path class="st0" d="M52.5,2h11.9c5.5,0,10,4.5,10,10v12c0,5.5-4.5,10-10,10H52.5c-5.5,0-10-4.5-10-10V12C42.5,6.5,47,2,52.5,2z"/>
	<path class="st0" d="M92.8,2h11.9c5.5,0,10,4.5,10,10v12c0,5.5-4.5,10-10,10H92.8c-5.5,0-10-4.5-10-10V12C82.8,6.5,87.3,2,92.8,2z"
		/>
</g>
</svg>
