<?xml version="1.0" encoding="utf-8"?>
<!-- Generator: Adobe Illustrator 21.0.0, SVG Export Plug-In . SVG Version: 6.00 Build 0)  -->
<svg version="1.1" id="Layer_1" xmlns="http://www.w3.org/2000/svg" xmlns:xlink="http://www.w3.org/1999/xlink" x="0px" y="0px"
	 viewBox="0 0 91 71" style="enable-background:new 0 0 91 71;" xml:space="preserve">
<style type="text/css">
	.st0{fill:none;stroke:#F36C00;stroke-width:4;stroke-miterlimit:10;}
</style>
<title>icon_pros</title>
<path class="st0" d="M63.7,44c-8,0-14.4-6.5-14.4-14.5s6.5-14.4,14.5-14.4s14.4,6.5,14.4,14.5C78.2,37.5,71.7,44,63.7,44z"/>
<path class="st0" d="M72.6,41.3c0.2,0,16.1,4.9,16.1,25.6c0,1-0.8,1.7-1.7,1.8l0,0H40.6c-0.9,0-1.7-0.8-1.7-1.7
	c0-10.7,4.3-17.1,7.9-20.5c2.3-2.2,5.1-4,8.1-5"/>
<path class="st0" d="M39.7,35.9l-15-9.5H12.1c-5.4,0-9.7-4.4-9.7-9.7l0,0v-4.6c0-5.4,4.4-9.7,9.7-9.7h20.2c5.4,0,9.7,4.4,9.7,9.7
	v4.6c0,3.8-2.3,7.3-5.7,8.9L39.7,35.9z"/>
</svg>
