<?xml version="1.0" encoding="utf-8"?>
<!-- Generator: Adobe Illustrator 21.0.0, SVG Export Plug-In . SVG Version: 6.00 Build 0)  -->
<svg version="1.1" id="icons" xmlns="http://www.w3.org/2000/svg" xmlns:xlink="http://www.w3.org/1999/xlink" x="0px" y="0px"
	 viewBox="0 0 77 69" style="enable-background:new 0 0 77 69;" xml:space="preserve">
<style type="text/css">
	.st0{fill:none;stroke:#F36C00;stroke-width:4;stroke-linecap:round;stroke-linejoin:round;}
</style>
<title>Vector Smart Object</title>
<path class="st0" d="M62.5,33.8v30.9c0,1.2-1,2.2-2.2,2.2H47.4c-1.2,0-2.2-1-2.2-2.2V47H31.8v17.7c0,1.2-1,2.2-2.2,2.2h-13
	c-1.2,0-2.2-1-2.2-2.2V34.1H2.2L37.1,2.6h0.1l0.2-0.1l0.2-0.1l0.2-0.1L38,2.2h0.2h0.2h0.4H39h0.2l0.2,0.1l0.2,0.1l0.2,0.1L40,2.6
	l0,0l34.8,31.3L62.5,33.8z"/>
</svg>
