<?xml version="1.0" encoding="utf-8"?>
<svg version="1.1" id="Layer_1" xmlns="http://www.w3.org/2000/svg" xmlns:xlink="http://www.w3.org/1999/xlink" x="0px" y="0px"
	 viewBox="0 0 101 75" style="enable-background:new 0 0 101 75;" xml:space="preserve">
<style type="text/css">
	.st0{fill:none;stroke:#F36C00;stroke-width:4;stroke-miterlimit:10;}
	.st1{fill:#F36C00;stroke:#FFFFFF;stroke-miterlimit:10;}
	.st2{fill:none;stroke:#F36C00;stroke-width:2;stroke-linecap:round;stroke-linejoin:round;}
</style>
<title>icon_clinical_trial_overview</title>
<path class="st0" d="M65.7,47.7c-8,0-14.5-6.5-14.5-14.5s6.5-14.5,14.5-14.5s14.5,6.5,14.5,14.5C80.1,41.3,73.7,47.7,65.7,47.7z"/>
<path class="st0" d="M74.5,45.1c0.2,0,16.1,4.9,16.1,25.6c0,1-0.8,1.7-1.7,1.8l0,0H42.5c-1,0-1.8-0.8-1.8-1.8
	c0-10.7,4.3-17.1,7.9-20.5c2.3-2.2,5.1-4,8.1-5"/>
<path class="st1" d="M32.8,70.6c0-11.7,4.6-18.9,8.7-23.1c0.2-0.2,0.9-0.7,0.4-1c-1.1-0.8-2.3-1.4-3.5-2c3.2-3.2,4.9-7.7,4.6-12.3
	c-0.5-8.8-8.1-15.4-16.8-14.9c-8.4,0.5-14.9,7.5-14.9,15.9c0,4.2,1.7,8.2,4.6,11.2c-2.5,1.2-4.7,2.7-6.7,4.6
	c-3.8,3.6-8.4,10.3-8.4,21.6c0,1.7,1.4,3.2,3.2,3.2h28.4c0.2,0,0.4-0.2,0.4-0.4l0,0C32.8,72.5,32.8,71.6,32.8,70.6z"/>
<polyline class="st2" points="93.5,6.1 99.2,6.1 99.2,35.3 84.6,35.3 "/>
<polyline class="st2" points="75,16.7 75,6.1 80.6,6.1 "/>
<rect x="81" y="4.1" class="st2" width="12.2" height="4.9"/>
<path class="st2" d="M84.8,3.5c0-1.3,1.1-2.4,2.4-2.4s2.4,1.1,2.4,2.4"/>
<line class="st2" x1="91.9" y1="15.7" x2="82.3" y2="15.7"/>
<line class="st2" x1="91.9" y1="20.9" x2="82.3" y2="20.9"/>
<line class="st2" x1="91.9" y1="26.1" x2="84.6" y2="26.1"/>
</svg>
