<?xml version="1.0" encoding="utf-8"?>
<svg id="Layer_1" style="enable-background:new 0 0 21 13;" x="0px" y="0px" viewBox="0 0 21 13" xmlns="http://www.w3.org/2000/svg">
  <style type="text/css">
	.st0 {
	    fill: #ffffff;
    }
</style>
  <polygon class="st0" points="16.975 4.108 15.836 2.916 11.284 7.577 6.731 2.916 5.593 4.108 10.146 8.769 10.146 8.769 11.284 9.962 12.422 8.769 12.422 8.769" style="stroke-width: 0.542;" transform="matrix(0, -1, 1, 0, 4.845, 17.723)"/>
  <polygon class="st0" points="20.993 4.099 19.854 2.907 15.302 7.568 10.749 2.907 9.611 4.099 14.164 8.76 14.164 8.76 15.302 9.953 16.44 8.76 16.44 8.76" style="stroke-width: 0.542;" transform="matrix(0, -1, 1, 0, 8.872, 21.732)"/>
  <polygon class="st0" points="12.959 4.113 11.82 2.921 7.268 7.582 2.715 2.921 1.577 4.113 6.13 8.774 6.13 8.774 7.268 9.967 8.406 8.774 8.406 8.774" style="stroke-width: 0.542;" transform="matrix(0, -1, 1, 0, 0.824, 13.712)"/>
</svg>