<svg xmlns="http://www.w3.org/2000/svg" width="15" height="15" viewBox="0 0 15 15">
    <metadata><?xpacket begin="﻿" id="W5M0MpCehiHzreSzNTczkc9d"?>
        <x:xmpmeta xmlns:x="adobe:ns:meta/" x:xmptk="Adobe XMP Core 5.6-c138 79.159824, 2016/09/14-01:09:01        ">
            <rdf:RDF xmlns:rdf="http://www.w3.org/1999/02/22-rdf-syntax-ns#">
                <rdf:Description rdf:about=""/>
            </rdf:RDF>
        </x:xmpmeta>

        <?xpacket end="w"?>
    </metadata>
    <defs>
        <style>
            .cls-1 {
            fill: #425365;
            fill-rule: evenodd;
            }
        </style>
    </defs>
    <path id="pi_icon" data-name="pi icon" class="cls-1"
          d="M14.993,7.5A7.492,7.492,0,1,0,7.5,15.008,7.5,7.5,0,0,0,14.993,7.5ZM9,5h2c-0.042-.07.047,0.05,0,0L9,3c-0.047-.05.066,0.045,0,0V5ZM8,5V3L5.723,3A1.068,1.068,0,0,0,5,3.75v6.5a1.064,1.064,0,0,0,.723.75h4.585a1,1,0,0,0,.671-0.75L11,6H9A1.9,1.9,0,0,1,8,5Z"/>
</svg>
