<svg xmlns="http://www.w3.org/2000/svg" width="16" height="16" viewBox="0 0 16 16">
  <metadata><?xpacket begin="﻿" id="W5M0MpCehiHzreSzNTczkc9d"?>
<x:xmpmeta xmlns:x="adobe:ns:meta/" x:xmptk="Adobe XMP Core 5.6-c138 79.159824, 2016/09/14-01:09:01        ">
   <rdf:RDF xmlns:rdf="http://www.w3.org/1999/02/22-rdf-syntax-ns#">
      <rdf:Description rdf:about=""/>
   </rdf:RDF>
</x:xmpmeta>
                                                                                                    
                                                                                                    
                                                                                                    
                                                                                                    
                                                                                                    
                                                                                                    
                                                                                                    
                                                                                                    
                                                                                                    
                                                                                                    
                                                                                                    
                                                                                                    
                                                                                                    
                                                                                                    
                                                                                                    
                                                                                                    
                                                                                                    
                                                                                                    
                                                                                                    
                                                                                                    
                           
<?xpacket end="w"?></metadata>
<defs>
    <style>
      .cls-1 {
        fill: #425365;
        fill-rule: evenodd;
      }
    </style>
  </defs>
  <path id="ref_icon" data-name="ref icon" class="cls-1" d="M15.993,8A7.992,7.992,0,1,0,8,16.008,8,8,0,0,0,15.993,8Zm-5.54-4h-4.9a0.529,0.529,0,0,0-.206.042,0.513,0.513,0,0,0-.337.477V10.48a0.513,0.513,0,0,0,.337.477A0.528,0.528,0,0,0,5.549,11a0.576,0.576,0,0,0,.388-0.153L8,8.883l2.063,1.962a0.572,0.572,0,0,0,.388.148,0.522,0.522,0,0,0,.206-0.037A0.513,0.513,0,0,0,11,10.48V4.515a0.513,0.513,0,0,0-.337-0.477A0.528,0.528,0,0,0,10.452,4Z"/>
</svg>
