<svg xmlns="http://www.w3.org/2000/svg" width="15" height="15" viewBox="0 0 15 15">
  <metadata><?xpacket begin="﻿" id="W5M0MpCehiHzreSzNTczkc9d"?>
<x:xmpmeta xmlns:x="adobe:ns:meta/" x:xmptk="Adobe XMP Core 5.6-c138 79.159824, 2016/09/14-01:09:01        ">
   <rdf:RDF xmlns:rdf="http://www.w3.org/1999/02/22-rdf-syntax-ns#">
      <rdf:Description rdf:about=""/>
   </rdf:RDF>
</x:xmpmeta>
                                                                                                    
                                                                                                    
                                                                                                    
                                                                                                    
                                                                                                    
                                                                                                    
                                                                                                    
                                                                                                    
                                                                                                    
                                                                                                    
                                                                                                    
                                                                                                    
                                                                                                    
                                                                                                    
                                                                                                    
                                                                                                    
                                                                                                    
                                                                                                    
                                                                                                    
                                                                                                    
                           
<?xpacket end="w"?></metadata>
<defs>
    <style>
      .cls-1 {
        fill: #425266;
        fill-rule: evenodd;
      }
    </style>
  </defs>
  <path id="globe_icon" data-name="globe icon" class="cls-1" d="M7.5-.008A7.508,7.508,0,1,0,14.993,7.5,7.5,7.5,0,0,0,7.5-.008Zm2.673,5.093a0.589,0.589,0,0,1,.419-0.117c0.107,0.029.2,0.068,0.068,0.156a0.763,0.763,0,0,1-.215.02c0.088,0.02.215,0.059,0.176,0.147,0.254,0.147-.078.323-0.244,0.3,0.078,0.01-.166.156-0.166,0.147a0.72,0.72,0,0,0-.273.137c-0.078.107,0.029,0.293-.117,0.254-0.059.127-.283,0.059-0.381,0.2,0.107,0.117-.107.284-0.215,0.137a1.879,1.879,0,0,0-.146.205,0.1,0.1,0,0,1-.019.156,1.038,1.038,0,0,1,.166.1,0.124,0.124,0,0,1-.107.088,0.346,0.346,0,0,1-.146.342,2.292,2.292,0,0,1-.351.176C8.447,7.7,8.33,7.94,8.642,8.008c0.01,0,.01.323,0.019,0.332,0.02,0.117.068,0.459-.137,0.332a0.865,0.865,0,0,1-.185-0.43,0.532,0.532,0,0,0-.117-0.235C8.1,8.155,8.076,8.047,7.969,7.979a2.63,2.63,0,0,1-.322-0.1C7.5,7.989,7.393,7.959,7.364,7.793a0.481,0.481,0,0,0,.029.225c-0.049.1-.137,0.078-0.215,0.02a3.4,3.4,0,0,0-.546,0A0.791,0.791,0,0,1,6.71,8.1c-0.029.117-.1,0.049-0.156,0.088s-0.127.147-.185,0.2a1.593,1.593,0,0,1,0,.743,0.873,0.873,0,0,0,.312.645,0.853,0.853,0,0,0,.468.029,0.361,0.361,0,0,0,.166-0.284,0.253,0.253,0,0,1,.254-0.2c0.42-.02.1,0.323,0.049,0.5-0.029.127-.039,0.274-0.058,0.391a0.372,0.372,0,0,0,.146.01c0-.039.029-0.088,0.029-0.117a0.192,0.192,0,0,0,.312.01,1.1,1.1,0,0,1,.224.342c0.019,0.137.146,0.284-.039,0.284-0.137,0,.019.274,0.039,0.323a0.34,0.34,0,0,0,.478.176,0.342,0.342,0,0,1-.137.313,0.3,0.3,0,0,1-.244-0.293,0.156,0.156,0,0,1-.068.088c-0.1-.117-0.263-0.176-0.351-0.293a1.293,1.293,0,0,1-.224-0.45,0.814,0.814,0,0,1-.537-0.107A0.843,0.843,0,0,0,6.7,10.139a0.586,0.586,0,0,1-.429.019,3.829,3.829,0,0,1-.39-0.215,0.893,0.893,0,0,1-.488-0.371,2.773,2.773,0,0,0-.127-0.489A0.629,0.629,0,0,0,4.906,8.79C5.023,8.79,4.8,8.5,4.769,8.468A1.1,1.1,0,0,1,4.35,7.8a0.524,0.524,0,0,0-.234-0.117,2.587,2.587,0,0,0,.1.293c0.049,0.1.107,0.186,0.166,0.283a1.088,1.088,0,0,1,.234.606c-0.127.039-.088-0.147-0.127-0.225a2.651,2.651,0,0,1-.3-0.264c0.019-.01.029-0.01,0.049-0.02,0.01-.166-0.234-0.3-0.2-0.42A1.793,1.793,0,0,1,3.8,7.49a1.259,1.259,0,0,0-.361-0.274,0.738,0.738,0,0,1-.273-0.508c-0.2.049-.293-0.411-0.263-0.528,0,0-.02,0-0.02-0.01a1.4,1.4,0,0,1,.127-0.733c-0.107.01-.137-0.254-0.107-0.3a0.3,0.3,0,0,1,.176.127,0.171,0.171,0,0,0,.1-0.176,0.683,0.683,0,0,0-.2-0.205c-0.029-.02-0.42-0.274-0.429-0.264a0.137,0.137,0,0,0-.029-0.186C2.33,4.577,2.428,4.294,2.33,4.264a0.273,0.273,0,0,1-.117-0.078,6.348,6.348,0,0,1,2.293-2.17,1.439,1.439,0,0,1,.215-0.01,0.909,0.909,0,0,1,.4.254,0.245,0.245,0,0,0-.049-0.176,0.3,0.3,0,0,1,.215-0.117,0.591,0.591,0,0,1,.293.01,2.4,2.4,0,0,0-.2-0.244,0.229,0.229,0,0,0-.049.049,0.477,0.477,0,0,0-.41.068,2.466,2.466,0,0,1-.224.117,0.167,0.167,0,0,1-.117.01,5.92,5.92,0,0,1,.917-0.4c0.058,0.039.117,0.108,0.2,0.176C5.647,1.7,5.647,1.928,5.667,1.967a0.562,0.562,0,0,0,.488.049c-0.01,0,.429.059,0.341-0.049a2.06,2.06,0,0,0,.156.332,0.868,0.868,0,0,0,.019-0.274,1.027,1.027,0,0,1,.254-0.117C6.993,1.86,6.876,1.791,6.847,1.772c-0.1-.059-0.478-0.088-0.293-0.313a0.424,0.424,0,0,1,.39.01c0.107,0.059.224,0.166,0.078,0.264,0.068,0.01.39,0.1,0.341,0.225A0.215,0.215,0,0,1,7.52,1.811a0.5,0.5,0,0,1,.146.264C7.8,2.319,8.037,1.83,8.076,1.85,7.9,1.781,8.232,1.693,8.32,1.723,8.389,1.752,8.5,1.987,8.369,1.977c0.107,0.1.117,0.313-.078,0.3C8.154,2.27,8,2.084,7.871,2.231c-0.088.1-.127,0.244-0.215,0.332a0.553,0.553,0,0,1-.488.108A0.567,0.567,0,0,1,7,2.945a0.553,0.553,0,0,0-.117.225,1.092,1.092,0,0,1-.049.3C7,3.424,7.091,3.727,7.023,3.736a1.11,1.11,0,0,1,.566.039,0.626,0.626,0,0,1,.4.254,0.353,0.353,0,0,1,.283-0.01,0.385,0.385,0,0,1,.156.293C8.467,4.46,8.593,4.7,8.759,4.626,8.789,4.606,9,4.509,8.925,4.45a0.292,0.292,0,0,1-.088-0.342,1.4,1.4,0,0,0,.312-0.274c0.078-.225-0.234-0.2-0.234-0.362a1.422,1.422,0,0,0,.117-0.244c0-.1-0.146-0.293-0.029-0.362a1.261,1.261,0,0,1,.654.1,1.093,1.093,0,0,1,.381.225H9.988C10.067,3.257,10.135,3.4,10,3.443c0.088-.02.341,0.078,0.166,0.137a1.072,1.072,0,0,0,.166-0.049c0.068-.039.107-0.108,0.2-0.059a0.855,0.855,0,0,1,.185-0.2,0.3,0.3,0,0,1,.146.2C10.9,3.561,11,3.59,11.042,3.678a0.413,0.413,0,0,0,.263.381c0.068,0.02.254-.088,0.244,0.059a0.206,0.206,0,0,0,.059-0.078,0.237,0.237,0,0,0,.234.274,0.924,0.924,0,0,1-.019.215,0.712,0.712,0,0,1-.293.117,0.691,0.691,0,0,0-.234.244,0.491,0.491,0,0,0-.5-0.107,2.246,2.246,0,0,0-.507.117,0.647,0.647,0,0,0-.215.147,0.713,0.713,0,0,1-.127.225A0.672,0.672,0,0,0,10.174,5.085Zm-1.59,8.573c-0.01-.049-0.02-0.147-0.02-0.156-0.01-.156.156-0.264,0.146-0.411a0.2,0.2,0,0,1-.117-0.254,0.706,0.706,0,0,1,.283-0.391,0.551,0.551,0,0,0,.117-0.469c-0.049-.235-0.049-0.479-0.088-0.714,0.01,0.059.176,0.039,0.2,0.117a2.356,2.356,0,0,1,.107-0.225,0.745,0.745,0,0,1,.166-0.127c0.1-.059.3-0.284,0.419-0.147a1.451,1.451,0,0,0-.019.352,0.725,0.725,0,0,1,.078-0.274c0.156-.176.263,0.02,0.42,0.068a0.817,0.817,0,0,1,.351.215c-0.039-.039.156-0.108,0.175-0.117a0.431,0.431,0,0,1,.39.166,0.476,0.476,0,0,1,.332.362,1.316,1.316,0,0,1,.234.078,0.893,0.893,0,0,1,.244.078A6.189,6.189,0,0,1,8.584,13.659Z"/>
</svg>
