<?xml version="1.0" encoding="utf-8"?>
<!-- Generator: Adobe Illustrator 21.0.0, SVG Export Plug-In . SVG Version: 6.00 Build 0)  -->
<svg version="1.1" id="Layer_1" xmlns="http://www.w3.org/2000/svg" xmlns:xlink="http://www.w3.org/1999/xlink" x="0px" y="0px"
	 viewBox="0 0 17 15" style="enable-background:new 0 0 17 15;" xml:space="preserve">
<style type="text/css">
	.st0{fill:#FFFFFF;}
</style>
<g>
	<path id="_" class="st0" d="M7.9,2c0-0.4-0.3-0.6-0.6-0.6C7,1.4,6.9,1.5,6.8,1.6L3.4,4.9H0.8c-0.4,0-0.6,0.3-0.6,0.6v3.9
		c0,0.4,0.3,0.6,0.6,0.6h2.6l3.3,3.3c0.1,0.1,0.3,0.2,0.5,0.2c0.4,0,0.6-0.3,0.6-0.6L7.9,2L7.9,2z M11.7,7.5c0-1-0.6-2-1.6-2.4
		c-0.1,0-0.2-0.1-0.3,0c-0.4,0-0.6,0.3-0.6,0.6l0,0c0,0.8,1.2,0.6,1.2,1.8s-1.2,1-1.2,1.8c0,0.4,0.3,0.6,0.6,0.6l0,0
		c0.1,0,0.2,0,0.3,0C11.1,9.5,11.7,8.5,11.7,7.5z M14.3,7.5c0-2.1-1.2-3.9-3.1-4.7c-0.1,0-0.2,0-0.3,0c-0.4,0-0.6,0.3-0.6,0.6
		s0.2,0.5,0.4,0.6c0.3,0.1,0.5,0.3,0.8,0.4c1.7,1.3,2.1,3.7,0.8,5.4c-0.2,0.3-0.5,0.6-0.8,0.8c-0.2,0.2-0.5,0.3-0.8,0.4
		c-0.3,0.1-0.5,0.5-0.3,0.8c0.1,0.2,0.3,0.4,0.6,0.4c0.1,0,0.2,0,0.3-0.1C13.1,11.4,14.3,9.6,14.3,7.5L14.3,7.5z M16.9,7.5
		c0-3.1-1.8-5.9-4.7-7.1c-0.1,0-0.2,0-0.3,0c-0.4,0-0.6,0.3-0.6,0.6s0.2,0.5,0.4,0.6c0.1,0.1,0.3,0.1,0.5,0.2
		C12.5,2,12.8,2.1,13,2.3c2.9,2.1,3.5,6.1,1.4,9c-0.4,0.5-0.8,1-1.4,1.4c-0.3,0.2-0.5,0.4-0.8,0.5c-0.2,0.1-0.3,0.1-0.5,0.2
		c-0.3,0.1-0.5,0.5-0.3,0.8c0.1,0.2,0.3,0.4,0.6,0.4c0.1,0,0.2,0,0.3,0C15,13.4,16.9,10.6,16.9,7.5L16.9,7.5z"/>
</g>
</svg>
