<?xml version="1.0" encoding="utf-8"?>
<svg x="0px" y="0px" viewBox="0 0 100 100" xmlns="http://www.w3.org/2000/svg">
  <g>
    <path fill="#F36C00" d="M44.622,58.085v23.933c0,1.498-1.215,2.713-2.713,2.713c-1.498,0-2.713-1.216-2.713-2.713V64.641   L9.629,94.207c-0.532,0.532-1.227,0.792-1.921,0.792c-0.695,0-1.389-0.26-1.911-0.792c-1.064-1.064-1.064-2.779,0-3.831   l29.577-29.577H17.976c-1.498,0-2.713-1.216-2.713-2.713c0-1.498,1.215-2.713,2.713-2.713h23.932c0.076,0,0.141,0.011,0.206,0.022   c0.043,0,0.076,0.011,0.108,0.011c0.25,0.032,0.489,0.087,0.706,0.174c0.25,0.098,0.488,0.239,0.705,0.413   c0.065,0.065,0.13,0.119,0.195,0.184c0.326,0.315,0.543,0.695,0.673,1.107c0.022,0.087,0.043,0.174,0.065,0.26   c0.022,0.087,0.032,0.174,0.043,0.26C44.622,57.9,44.622,57.987,44.622,58.085z"/>
  </g>
  <g>
    <path fill="#F36C00" d="M94.202,9.633L64.745,39.091h17.377c1.498,0,2.713,1.215,2.713,2.713c0,1.498-1.215,2.713-2.713,2.713   H58.189c-0.271,0-0.553-0.043-0.814-0.12c-0.087-0.033-0.163-0.065-0.239-0.098c-0.315-0.13-0.608-0.315-0.857-0.575   c-0.065-0.065-0.12-0.13-0.185-0.195c-0.174-0.217-0.315-0.456-0.412-0.706c-0.043-0.108-0.087-0.228-0.109-0.337v-0.011   c-0.033-0.119-0.043-0.239-0.065-0.358c-0.011-0.043-0.021-0.098-0.011-0.152c-0.011-0.054-0.022-0.108-0.022-0.163V17.872   c0-1.498,1.216-2.713,2.713-2.713c1.498,0,2.713,1.216,2.713,2.713V35.27L90.371,5.791c1.053-1.053,2.779-1.053,3.831,0   C95.266,6.855,95.266,8.57,94.202,9.633z"/>
  </g>
  <g>
    <path fill="#F36C00" d="M94.202,94.207c-0.532,0.532-1.227,0.792-1.921,0.792c-0.684,0-1.378-0.26-1.91-0.792L60.783,64.63v17.377   c0,1.498-1.216,2.713-2.713,2.713s-2.713-1.215-2.713-2.713V58.074c0-0.695,0.26-1.389,0.792-1.921s1.226-0.792,1.921-0.792h23.933   c1.498,0,2.713,1.215,2.713,2.713c0,1.498-1.216,2.713-2.713,2.713H64.626l29.577,29.588   C95.266,91.428,95.266,93.143,94.202,94.207z"/>
  </g>
  <g>
    <path fill="#F36C00" d="M44.437,17.796v23.933c0,0.695-0.26,1.389-0.792,1.921s-1.226,0.792-1.921,0.792H17.791   c-1.498,0-2.713-1.216-2.713-2.713s1.216-2.713,2.713-2.713h17.388L5.798,9.633c-1.064-1.064-1.064-2.778,0-3.842   c1.053-1.053,2.768-1.053,3.832,0l29.381,29.381V17.796c0-1.498,1.216-2.713,2.713-2.713   C43.222,15.082,44.437,16.298,44.437,17.796z"/>
  </g>
  <g>
    <path fill="#F36C00" d="M44.622,58.085v0.271c0.011-0.185,0.011-0.38-0.011-0.554C44.622,57.9,44.622,57.987,44.622,58.085z"/>
  </g>
</svg>