<svg xmlns="http://www.w3.org/2000/svg" width="15" height="15" viewBox="0 0 15 15">
  <metadata><?xpacket begin="﻿" id="W5M0MpCehiHzreSzNTczkc9d"?>
<x:xmpmeta xmlns:x="adobe:ns:meta/" x:xmptk="Adobe XMP Core 5.6-c138 79.159824, 2016/09/14-01:09:01        ">
   <rdf:RDF xmlns:rdf="http://www.w3.org/1999/02/22-rdf-syntax-ns#">
      <rdf:Description rdf:about=""/>
   </rdf:RDF>
</x:xmpmeta>
                           
<?xpacket end="w"?></metadata>
<defs>
    <style>
      .cls-1 {
        fill: #ffffff;
        fill-rule: evenodd;
      }
    </style>
  </defs>
  <path id="profile_icon" data-name="profile icon" class="cls-1" d="M12.746,11.213a6.414,6.414,0,0,1-10.492,0c0.218-1.567.853-2.959,2.276-3.151a4.01,4.01,0,0,0,5.94,0C11.893,8.254,12.529,9.646,12.746,11.213ZM10.713,5.354A3.213,3.213,0,1,1,7.5,2.136,3.217,3.217,0,0,1,10.713,5.354ZM15,7.5a7.5,7.5,0,1,0-7.5,7.51A7.5,7.5,0,0,0,15,7.5Z"/>
</svg>
