<?xml version="1.0" encoding="utf-8"?>
<!-- Generator: Adobe Illustrator 21.0.0, SVG Export Plug-In . SVG Version: 6.00 Build 0)  -->
<svg version="1.1" id="box" xmlns="http://www.w3.org/2000/svg" xmlns:xlink="http://www.w3.org/1999/xlink" x="0px" y="0px"
	 viewBox="0 0 19 15" style="enable-background:new 0 0 19 15;" xml:space="preserve">
<style type="text/css">
	.st0{fill:#FFFFFF;}
</style>
<path id="_" class="st0" d="M19,4.8c-0.3,0.3-0.7,0.7-1.1,0.9c-1.8,1.2-3.6,2.4-5.3,3.7c-0.9,0.8-2,1.3-3.1,1.5h0
	c-1.2-0.2-2.3-0.7-3.1-1.5C4.6,8.2,2.8,7,1.1,5.8C0.7,5.5,0.3,5.2,0,4.8v8.5C0,14.2,0.8,15,1.7,15h15.6c0.9,0,1.7-0.8,1.7-1.7
	L19,4.8L19,4.8z M19,1.7C19,0.8,18.2,0,17.3,0H1.7C0.7,0,0,0.8,0,1.7c0,0.1,0,0.1,0,0.2C0.2,3,0.9,4,1.8,4.6
	c1.6,1.2,3.3,2.3,4.9,3.5c0.7,0.5,1.9,1.5,2.7,1.5h0c0.9,0,2-1,2.7-1.5c1.6-1.2,3.3-2.3,5-3.5C18.2,4,18.9,2.9,19,1.7L19,1.7z"/>
</svg>
